<svg width="25" height="28" viewBox="0 0 25 28" fill="none" xmlns="http://www.w3.org/2000/svg">
<path d="M10.6489 18.4722L17.5031 11.618L16.1419 10.2569L10.6489 15.7499L7.87806 12.9791L6.51695 14.3402L10.6489 18.4722ZM12.01 23.7222C10.6651 23.7222 9.40121 23.467 8.21834 22.9565C7.03547 22.4461 6.00653 21.7534 5.13153 20.8784C4.25653 20.0034 3.56382 18.9745 3.05341 17.7916C2.54299 16.6087 2.28778 15.3449 2.28778 13.9999C2.28778 12.655 2.54299 11.3911 3.05341 10.2083C3.56382 9.02541 4.25653 7.99647 5.13153 7.12147C6.00653 6.24647 7.03547 5.55376 8.21834 5.04335C9.40121 4.53293 10.6651 4.27772 12.01 4.27772C13.3549 4.27772 14.6188 4.53293 15.8017 5.04335C16.9845 5.55376 18.0135 6.24647 18.8885 7.12147C19.7635 7.99647 20.4562 9.02541 20.9666 10.2083C21.477 11.3911 21.7322 12.655 21.7322 13.9999C21.7322 15.3449 21.477 16.6087 20.9666 17.7916C20.4562 18.9745 19.7635 20.0034 18.8885 20.8784C18.0135 21.7534 16.9845 22.4461 15.8017 22.9565C14.6188 23.467 13.3549 23.7222 12.01 23.7222ZM12.01 21.7777C14.1813 21.7777 16.0204 21.0243 17.5274 19.5173C19.0343 18.0104 19.7878 16.1712 19.7878 13.9999C19.7878 11.8286 19.0343 9.98953 17.5274 8.48258C16.0204 6.97564 14.1813 6.22217 12.01 6.22217C9.83871 6.22217 7.99959 6.97564 6.49264 8.48258C4.9857 9.98953 4.23223 11.8286 4.23223 13.9999C4.23223 16.1712 4.9857 18.0104 6.49264 19.5173C7.99959 21.0243 9.83871 21.7777 12.01 21.7777Z" fill="currentColor"/>
</svg>
