<svg width="18" height="22" viewBox="0 0 18 22" fill="none" xmlns="http://www.w3.org/2000/svg">
<path d="M12 11V9.5H13.5V11H12ZM12 12.5H10.5V11H12V12.5ZM12 14V12.5H13.5V14H12ZM8.38125 8L6.88125 6.5H3V15.5H10.5V14H12V15.5H15V8H12V9.5H10.5V8H8.38125ZM3 17C2.5875 17 2.23438 16.8531 1.94063 16.5594C1.64687 16.2656 1.5 15.9125 1.5 15.5V6.5C1.5 6.0875 1.64687 5.73438 1.94063 5.44062C2.23438 5.14687 2.5875 5 3 5H7.5L9 6.5H15C15.4125 6.5 15.7656 6.64687 16.0594 6.94062C16.3531 7.23438 16.5 7.5875 16.5 8V15.5C16.5 15.9125 16.3531 16.2656 16.0594 16.5594C15.7656 16.8531 15.4125 17 15 17H3ZM3 15.5V8V6.5V15.5Z" fill="currentColor"/>
</svg>
