<svg width="24" height="28" viewBox="0 0 24 28" fill="none" xmlns="http://www.w3.org/2000/svg">
<path d="M12.005 12.0622L8.11775 15.9495L9.4783 17.31L11.0332 15.7551V19.8367H12.9768V15.7551L14.5317 17.31L15.8923 15.9495L12.005 12.0622ZM5.2023 10.1186V20.8086H18.8077V10.1186H5.2023ZM5.2023 22.7522C4.6678 22.7522 4.21024 22.5619 3.82961 22.1813C3.44898 21.8006 3.25867 21.3431 3.25867 20.8086V8.68514C3.25867 8.45838 3.29511 8.23972 3.368 8.02916C3.44088 7.8186 3.55021 7.62424 3.69598 7.44607L4.91076 5.96405C5.08892 5.73729 5.31163 5.56318 5.57888 5.4417C5.84613 5.32022 6.12553 5.25948 6.41707 5.25948H17.593C17.8845 5.25948 18.1639 5.32022 18.4312 5.4417C18.6984 5.56318 18.9211 5.73729 19.0993 5.96405L20.3141 7.44607C20.4598 7.62424 20.5692 7.8186 20.6421 8.02916C20.7149 8.23972 20.7514 8.45838 20.7514 8.68514V20.8086C20.7514 21.3431 20.5611 21.8006 20.1804 22.1813C19.7998 22.5619 19.3422 22.7522 18.8077 22.7522H5.2023ZM5.59103 8.17494H18.419L17.593 7.20312H6.41707L5.59103 8.17494Z" fill="#6B7280"/>
</svg>
